<svg width="40" height="21" viewBox="0 0 40 21" fill="none" xmlns="http://www.w3.org/2000/svg">
<rect y="0.5" width="40" height="20" rx="10" fill="#4F4F4F"/>
<g clip-path="url(#clip0_1_288)">
<path d="M34.3385 7.91972C34.0044 6.68004 32.9444 5.79237 31.6944 5.69084C25.144 5.16044 18.6598 5.27155 13.3226 6.09289C10.2033 6.57468 7.47724 7.29737 5.35599 8.27699C8.0423 17.5508 21.7184 19.8634 23.6313 11.3502C23.6432 11.2961 23.6577 11.242 23.675 11.1891C23.7224 11.043 23.7885 10.9036 23.881 10.7817C24.0527 10.5598 24.2718 10.4122 24.5108 10.3366H24.5122C25.2013 10.116 26.0317 10.4937 26.1912 11.4177C26.7378 14.9768 28.9502 16.7143 32.1831 16.5668C32.7771 16.5398 33.3104 16.188 33.5784 15.6439C33.6655 15.4653 33.7486 15.2773 33.8264 15.0824C34.6568 12.9903 34.9023 10.0078 34.3387 7.91972H34.3385ZM20.6993 8.17546C21.1031 8.23222 21.4068 8.58015 21.4292 8.99681C21.6696 13.5058 16.9225 15.4464 13.4785 13.1648C12.8421 12.7439 12.3616 12.1119 12.0963 11.3854C12.0145 11.1622 11.947 10.9403 11.8942 10.7183C11.691 9.85886 12.1491 8.97669 12.9608 8.67905C14.8564 7.98629 17.6287 7.74252 20.6993 8.1757V8.17546ZM27.9703 9.10097C28.0151 8.68695 28.3174 8.35123 28.7147 8.26191C30.2539 7.91685 31.7113 7.902 32.8161 8.62732C33.3599 8.9846 33.6702 9.61796 33.6702 10.2796C33.6662 12.9833 32.6907 14.6708 30.7647 14.0985C30.209 13.9335 29.722 13.5923 29.3232 13.1634C28.209 11.9618 27.8182 10.4582 27.97 9.10097H27.9703Z" fill="#F2C94C"/>
<g opacity="0.6">
<path d="M11.3824 11.4419C11.4352 11.6639 11.5025 11.8859 11.5845 12.1091C11.8498 12.8358 12.3303 13.4677 12.9667 13.8885C15.581 15.6202 18.9438 14.9177 20.3084 12.5075C18.7336 14.3173 15.8088 14.7086 13.4785 13.1648C12.8421 12.7439 12.3616 12.1119 12.0963 11.3854C12.0145 11.1622 11.947 10.9403 11.8942 10.7183C11.8104 10.3636 11.8405 10.0059 11.9603 9.68597C11.4661 10.0966 11.2248 10.7755 11.3824 11.4419Z" fill="white"/>
<path d="M23.369 11.5056C23.2765 11.6275 23.2106 11.7669 23.1629 11.913C23.1457 11.9656 23.1312 12.0198 23.1193 12.0739C22.9396 12.8734 22.656 13.5774 22.2877 14.1892C22.9086 13.4292 23.3755 12.4872 23.6311 11.3502C23.6404 11.3078 23.6526 11.2659 23.6652 11.224C23.5565 11.299 23.4563 11.3921 23.3687 11.5054L23.369 11.5056Z" fill="white"/>
<path d="M34.3385 7.91972C34.0044 6.68004 32.9444 5.79237 31.6944 5.69084C25.144 5.16044 18.6598 5.27155 13.3226 6.09289C10.2033 6.57468 7.47724 7.29737 5.35599 8.27699C5.39897 8.4257 5.44522 8.57273 5.49381 8.71784C7.51111 7.88093 10.0005 7.25067 12.8108 6.81654C18.148 5.99519 24.6322 5.88408 31.1824 6.41472C32.4326 6.51625 33.4926 7.40393 33.8264 8.64361C34.3901 10.7317 34.1446 13.7141 33.3142 15.8063C33.2618 15.9373 33.2065 16.0635 33.1497 16.1875C33.3249 16.041 33.4723 15.8583 33.5777 15.6442C33.6648 15.4655 33.7479 15.2776 33.8257 15.0827C34.6561 12.9905 34.9017 10.008 34.338 7.91996L34.3385 7.91972Z" fill="white"/>
<path d="M27.9759 9.07153C27.6951 9.21688 27.4942 9.49466 27.4585 9.82487C27.3066 11.1821 27.6974 12.6857 28.8117 13.8873C29.2104 14.3162 29.6975 14.6574 30.2532 14.8224C31.3849 15.1588 32.188 14.7141 32.6592 13.7419C32.1899 14.1861 31.5583 14.3344 30.765 14.0987C30.2093 13.9337 29.7222 13.5925 29.3235 13.1636C28.2092 11.962 27.8184 10.4585 27.9703 9.10123C27.9714 9.09117 27.9745 9.08159 27.9759 9.07153Z" fill="white"/>
</g>
<path d="M16.5639 17C12.1175 17 6.65283 14.0348 5.01535 8.38067C4.96466 8.20563 5.04805 8.01909 5.21017 7.94414C10.7047 5.40684 20.6158 4.42865 31.7226 5.3271C33.1204 5.44012 34.3099 6.44273 34.6818 7.82202C35.3155 10.1718 34.9777 13.6049 33.8957 15.8077C33.5713 16.4679 32.9214 16.8985 32.1992 16.9313C28.7147 17.0903 26.397 15.1006 25.8401 11.474C25.7686 11.0614 25.5135 10.7657 25.1414 10.6699C24.7763 10.5763 24.3913 10.7085 24.1606 11.008C24.079 11.1139 24.0178 11.2568 23.9784 11.4323C23.222 14.7977 20.5672 16.8772 16.8769 16.9947C16.7734 16.9981 16.6686 16.9998 16.5639 16.9998V17ZM5.79111 8.47957C7.47484 13.7151 12.7015 16.398 16.8547 16.2658C20.2516 16.1576 22.5955 14.3363 23.2846 11.2688C23.3479 10.9874 23.4546 10.7477 23.6016 10.5564C24.0055 10.0315 24.6775 9.79827 25.3147 9.9623C25.9613 10.1287 26.4199 10.6488 26.5418 11.3536C27.044 14.6248 29.0408 16.3436 32.1674 16.2021C32.6325 16.181 33.0511 15.904 33.2597 15.4794C34.2545 13.4538 34.5778 10.1757 33.9953 8.01646C33.7028 6.93195 32.7668 6.14341 31.6661 6.05457C20.8669 5.18103 11.2375 6.08714 5.79111 8.47957Z" fill="#212020"/>
<path d="M31.4709 14.512C31.22 14.512 30.9561 14.4715 30.682 14.3901C30.1133 14.2211 29.5692 13.8693 29.1086 13.3727C28.0233 12.2029 27.501 10.6333 27.6753 9.06647C27.7355 8.52554 28.1277 8.08326 28.6512 7.96568C30.5101 7.54831 31.9252 7.68121 32.9769 8.37204C33.5975 8.77984 33.9675 9.49343 33.9666 10.2808C33.9645 12.1459 33.5251 13.4689 32.6958 14.1066C32.3457 14.376 31.9306 14.512 31.4709 14.512ZM28.778 8.55954C28.5024 8.62156 28.2961 8.85288 28.2646 9.1352C28.1102 10.5226 28.5743 11.9144 29.5384 12.9534C29.9268 13.3719 30.3795 13.6667 30.8474 13.8058C31.4464 13.984 31.9481 13.9213 32.3401 13.62C33.0047 13.1088 33.3719 11.9225 33.3737 10.2798C33.3744 9.70966 33.0997 9.17471 32.6571 8.88377C31.7447 8.2844 30.476 8.17808 28.7783 8.5593L28.778 8.55954Z" fill="#212020"/>
<path d="M16.6182 14.427C15.4836 14.427 14.3266 14.0889 13.3168 13.4201C12.6415 12.9728 12.1091 12.2879 11.8181 11.492C11.7328 11.2587 11.6618 11.0229 11.6064 10.7906C11.3649 9.77409 11.9045 8.74369 12.8615 8.39337C14.9052 7.64554 17.7765 7.45612 20.7401 7.87422C21.2809 7.95061 21.6953 8.41564 21.7252 8.98028C21.8338 11.0133 20.9702 12.7304 19.3556 13.6912C18.5285 14.1835 17.5813 14.4272 16.6182 14.4272V14.427ZM13.061 8.96591C12.3911 9.21112 12.0136 9.93357 12.183 10.6464C12.2325 10.8552 12.2967 11.0679 12.3736 11.2784C12.6202 11.9532 13.0694 12.5324 13.6387 12.9091C15.3203 14.0228 17.4477 14.1234 19.0578 13.1648C20.4727 12.3229 21.2288 10.8097 21.133 9.01309C21.1183 8.73867 20.9191 8.51286 20.6591 8.47622C17.7878 8.07105 15.0181 8.24945 13.061 8.96567V8.96591Z" fill="#212020"/>
<g opacity="0.3">
<path d="M23.6747 11.1893C23.6577 11.242 23.643 11.2961 23.6311 11.3505C21.7184 19.8635 8.0423 17.5508 5.35599 8.277C7.47747 7.29737 10.2033 6.57469 13.3226 6.0929C13.1577 6.24184 12.9926 6.39054 12.8277 6.53805L13.0309 6.56774C12.1661 7.03469 11.2369 7.57323 10.8699 8.50161C10.5464 9.31769 10.7405 10.2487 11.0192 11.0837C11.3836 12.1797 11.9169 13.2664 12.8106 13.9742C14.1148 15.0068 15.9076 15.0379 17.5511 14.9174C18.3591 14.8566 19.1762 14.7685 19.9338 14.4723C21.6128 13.8174 22.7785 12.2367 23.6114 10.6048C23.6353 10.7983 23.6577 10.9932 23.6747 11.1893Z" fill="#212020"/>
</g>
<g opacity="0.3">
<path d="M33.8262 15.0824C33.7484 15.2773 33.6653 15.4653 33.5781 15.6439C33.3102 16.188 32.7769 16.5398 32.1829 16.5668C28.95 16.7143 26.7376 14.9768 26.191 11.4177C26.0312 10.4934 25.201 10.116 24.512 10.3366H24.5106C24.3877 10.3392 24.2664 10.3651 24.1475 10.4218C24.1938 10.2947 24.2401 10.1675 24.2861 10.0389L23.9495 10.4503C24.2043 9.72643 25.1639 9.4774 25.8504 9.78989C26.537 10.1038 26.9752 10.8062 27.2602 11.5193C27.5454 12.2312 27.7182 12.9929 28.0838 13.6655C28.835 15.0527 30.4216 15.9133 31.9621 15.7725C32.6288 15.7117 33.2703 15.4641 33.826 15.0824H33.8262Z" fill="#212020"/>
</g>
</g>
<defs>
<clipPath id="clip0_1_288">
<rect width="30" height="12" fill="white" transform="translate(5 5)"/>
</clipPath>
</defs>
</svg>
