<svg width="30" height="12" viewBox="0 0 30 12" fill="none" xmlns="http://www.w3.org/2000/svg">
<g clip-path="url(#clip0_1_290)">
<path d="M29.3385 2.91972C29.0044 1.68004 27.9444 0.79237 26.6944 0.690839C20.144 0.160438 13.6598 0.271547 8.32265 1.09289C5.20326 1.57468 2.47724 2.29737 0.355988 3.27699C3.0423 12.5508 16.7184 14.8634 18.6313 6.35021C18.6432 6.29609 18.6577 6.24197 18.675 6.18905C18.7224 6.04298 18.7885 5.90362 18.881 5.78173C19.0527 5.55976 19.2718 5.41225 19.5108 5.33658H19.5122C20.2013 5.11604 21.0317 5.49367 21.1912 6.41774C21.7378 9.97681 23.9502 11.7143 27.1831 11.5668C27.7771 11.5398 28.3104 11.188 28.5784 10.6439C28.6655 10.4653 28.7486 10.2773 28.8264 10.0824C29.6568 7.99026 29.9023 5.0078 29.3387 2.91972H29.3385ZM15.6993 3.17546C16.1031 3.23222 16.4068 3.58015 16.4292 3.99681C16.6696 8.50582 11.9225 10.4464 8.47845 8.16483C7.84215 7.74386 7.36165 7.11193 7.09629 6.38541C7.01453 6.16223 6.94702 5.94026 6.89423 5.71828C6.69101 4.85886 7.14908 3.97669 7.96081 3.67905C9.85641 2.98629 12.6287 2.74252 15.6993 3.1757V3.17546ZM22.9703 4.10097C23.0151 3.68695 23.3174 3.35123 23.7147 3.26191C25.2539 2.91685 26.7113 2.902 27.8161 3.62732C28.3599 3.9846 28.6702 4.61796 28.6702 5.27959C28.6662 7.98332 27.6907 9.67078 25.7647 9.09848C25.209 8.93349 24.722 8.59226 24.3232 8.16339C23.209 6.96179 22.8182 5.45822 22.97 4.10097H22.9703Z" fill="#F2C94C"/>
<g opacity="0.6">
<path d="M6.38243 6.44193C6.43522 6.6639 6.5025 6.88588 6.58449 7.10906C6.84985 7.83582 7.33035 8.46775 7.96665 8.88848C10.581 10.6202 13.9438 9.91767 15.3084 7.50752C13.7336 9.31735 10.8088 9.70862 8.47845 8.16483C7.84215 7.74386 7.36165 7.11193 7.09629 6.38541C7.01453 6.16224 6.94702 5.94026 6.89423 5.71828C6.81037 5.36364 6.8405 5.00589 6.96034 4.68597C6.46606 5.09665 6.22476 5.77551 6.38243 6.44193Z" fill="white"/>
<path d="M18.369 6.50563C18.2765 6.62752 18.2106 6.76688 18.1629 6.91295C18.1457 6.96563 18.1312 7.01975 18.1193 7.07387C17.9396 7.87342 17.656 8.57743 17.2877 9.18925C17.9086 8.42921 18.3755 7.48717 18.6311 6.35022C18.6404 6.30784 18.6526 6.26593 18.6652 6.22403C18.5565 6.29898 18.4563 6.39213 18.3687 6.50539L18.369 6.50563Z" fill="white"/>
<path d="M29.3385 2.91972C29.0044 1.68004 27.9444 0.79237 26.6944 0.690839C20.144 0.160438 13.6598 0.271547 8.32265 1.09289C5.20326 1.57468 2.47724 2.29737 0.355988 3.27699C0.398968 3.4257 0.44522 3.57273 0.493807 3.71784C2.51111 2.88093 5.0005 2.25067 7.81085 1.81654C13.148 0.995192 19.6322 0.884083 26.1824 1.41472C27.4326 1.51625 28.4926 2.40393 28.8264 3.64361C29.3901 5.73169 29.1446 8.71415 28.3142 10.8063C28.2618 10.9373 28.2065 11.0635 28.1497 11.1875C28.3249 11.041 28.4723 10.8583 28.5777 10.6442C28.6648 10.4655 28.7479 10.2776 28.8257 10.0827C29.6561 7.9905 29.9017 5.00804 29.338 2.91996L29.3385 2.91972Z" fill="white"/>
<path d="M22.9759 4.07153C22.6951 4.21688 22.4942 4.49466 22.4585 4.82487C22.3066 6.18212 22.6974 7.68569 23.8117 8.88729C24.2104 9.31616 24.6975 9.65739 25.2532 9.82238C26.3849 10.1588 27.188 9.71414 27.6592 8.74194C27.1899 9.18613 26.5583 9.33436 25.765 9.09873C25.2093 8.93374 24.7222 8.59252 24.3235 8.16365C23.2092 6.96204 22.8184 5.45848 22.9703 4.10123C22.9714 4.09117 22.9745 4.08159 22.9759 4.07153Z" fill="white"/>
</g>
<path d="M11.5639 12C7.11748 12 1.65283 9.03478 0.0153498 3.38067C-0.0353397 3.20563 0.0480527 3.01909 0.210166 2.94414C5.70472 0.406836 15.6158 -0.571354 26.7226 0.327096C28.1204 0.44012 29.3099 1.44273 29.6818 2.82202C30.3155 5.17183 29.9777 8.60495 28.8957 10.8077C28.5713 11.4679 27.9214 11.8985 27.1992 11.9313C23.7147 12.0903 21.397 10.1006 20.8401 6.474C20.7686 6.06142 20.5135 5.76568 20.1414 5.6699C19.7763 5.57627 19.3913 5.70845 19.1606 6.00802C19.079 6.11386 19.0178 6.25681 18.9784 6.43234C18.222 9.79769 15.5672 11.8772 11.8769 11.9947C11.7734 11.9981 11.6686 11.9998 11.5639 11.9998V12ZM0.791109 3.47957C2.47484 8.7151 7.70146 11.398 11.8547 11.2658C15.2516 11.1576 17.5955 9.33626 18.2846 6.26879C18.3479 5.98742 18.4546 5.74773 18.6016 5.5564C19.0055 5.0315 19.6775 4.79827 20.3147 4.9623C20.9613 5.12872 21.4199 5.64883 21.5418 6.35356C22.044 9.6248 24.0408 11.3436 27.1674 11.2021C27.6325 11.181 28.0511 10.904 28.2597 10.4794C29.2545 8.45385 29.5778 5.17566 28.9953 3.01646C28.7028 1.93195 27.7668 1.14341 26.6661 1.05457C15.8669 0.181026 6.23754 1.08714 0.791109 3.47957Z" fill="#212020"/>
<path d="M26.4709 9.51201C26.22 9.51201 25.9561 9.47154 25.682 9.39012C25.1133 9.22107 24.5692 8.8693 24.1086 8.37266C23.0233 7.20291 22.501 5.63325 22.6753 4.06647C22.7355 3.52554 23.1277 3.08326 23.6512 2.96568C25.5101 2.54831 26.9252 2.68121 27.9769 3.37204C28.5975 3.77984 28.9675 4.49343 28.9666 5.28077C28.9645 7.14592 28.5251 8.46892 27.6958 9.1066C27.3457 9.37599 26.9306 9.51201 26.4709 9.51201ZM23.778 3.55954C23.5024 3.62156 23.2961 3.85288 23.2646 4.1352C23.1102 5.52262 23.5743 6.91436 24.5384 7.95337C24.9268 8.37194 25.3795 8.66672 25.8474 8.80584C26.4464 8.984 26.9481 8.92126 27.3401 8.62002C28.0047 8.10878 28.3719 6.9225 28.3737 5.27981C28.3744 4.70966 28.0997 4.17471 27.6571 3.88377C26.7447 3.2844 25.476 3.17808 23.7783 3.5593L23.778 3.55954Z" fill="#212020"/>
<path d="M11.6182 9.42701C10.4836 9.42701 9.32663 9.08889 8.31681 8.42009C7.64149 7.97278 7.10914 7.28792 6.81808 6.49196C6.73282 6.25873 6.66181 6.02286 6.60645 5.79059C6.36491 4.77409 6.90451 3.74369 7.86154 3.39337C9.90523 2.64554 12.7765 2.45612 15.7401 2.87422C16.2809 2.95061 16.6953 3.41564 16.7252 3.98028C16.8338 6.01328 15.9702 7.73044 14.3556 8.69115C13.5285 9.18348 12.5813 9.42725 11.6182 9.42725V9.42701ZM8.06103 3.96591C7.39108 4.21112 7.0136 4.93357 7.18295 5.64643C7.23247 5.85524 7.29671 6.06788 7.37356 6.27837C7.62024 6.95316 8.06943 7.53241 8.6387 7.90908C10.3203 9.0228 12.4477 9.12338 14.0578 8.16482C15.4727 7.32289 16.2288 5.80974 16.133 4.01309C16.1183 3.73867 15.9191 3.51286 15.6591 3.47622C12.7878 3.07105 10.0181 3.24945 8.06103 3.96567V3.96591Z" fill="#212020"/>
<g opacity="0.3">
<path d="M18.6747 6.1893C18.6577 6.24198 18.643 6.2961 18.6311 6.35045C16.7184 14.8635 3.0423 12.5508 0.355988 3.277C2.47747 2.29737 5.20326 1.57469 8.32265 1.0929C8.15773 1.24184 7.99258 1.39054 7.82766 1.53805L8.03089 1.56774C7.16613 2.03469 6.2369 2.57323 5.86993 3.50161C5.5464 4.31769 5.74052 5.2487 6.01919 6.0837C6.3836 7.1797 6.91689 8.26636 7.81061 8.9742C9.11476 10.0068 10.9076 10.0379 12.5511 9.91743C13.3591 9.85661 14.1762 9.76849 14.9338 9.47228C16.6128 8.81736 17.7785 7.23669 18.6114 5.60478C18.6353 5.79826 18.6577 5.99318 18.6747 6.1893Z" fill="#212020"/>
</g>
<g opacity="0.3">
<path d="M28.8262 10.0824C28.7484 10.2773 28.6653 10.4653 28.5781 10.6439C28.3102 11.188 27.7769 11.5398 27.1829 11.5668C23.95 11.7143 21.7376 9.97681 21.191 6.41773C21.0312 5.49342 20.201 5.11603 19.512 5.33657H19.5106C19.3877 5.33921 19.2664 5.36507 19.1475 5.42182C19.1938 5.29467 19.2401 5.16752 19.2861 5.03893L18.9495 5.45032C19.2043 4.72643 20.1639 4.4774 20.8504 4.78989C21.537 5.10382 21.9752 5.80615 22.2602 6.51926C22.5454 7.23117 22.7182 7.99289 23.0838 8.66553C23.835 10.0527 25.4216 10.9133 26.9621 10.7725C27.6288 10.7117 28.2703 10.4641 28.826 10.0824H28.8262Z" fill="#212020"/>
</g>
</g>
<defs>
<clipPath id="clip0_1_290">
<rect width="30" height="12" fill="white"/>
</clipPath>
</defs>
</svg>
