<svg width="16" height="21" viewBox="0 0 16 21" fill="none" xmlns="http://www.w3.org/2000/svg">
<path d="M11 4.5C11 2.84315 9.65685 1.5 8 1.5C6.34315 1.5 5 2.84315 5 4.5V9.5C5 11.1569 6.34315 12.5 8 12.5C9.65685 12.5 11 11.1569 11 9.5V4.5Z" stroke="#8D8D8D" stroke-width="2" stroke-linejoin="round"/>
<path d="M1 9.5C1 10.4193 1.18106 11.3295 1.53284 12.1788C1.88463 13.0281 2.40024 13.7997 3.05025 14.4497C3.70026 15.0998 4.47194 15.6154 5.32122 15.9672C6.17049 16.3189 7.08075 16.5 8 16.5C8.91925 16.5 9.82951 16.3189 10.6788 15.9672C11.5281 15.6154 12.2997 15.0998 12.9497 14.4497C13.5998 13.7997 14.1154 13.0281 14.4672 12.1788C14.8189 11.3295 15 10.4193 15 9.5M8 19.5V17.5" stroke="#8D8D8D" stroke-width="2" stroke-linecap="round" stroke-linejoin="round"/>
</svg>
