<svg width="12" height="15" viewBox="0 0 12 15" fill="none" xmlns="http://www.w3.org/2000/svg">
<path d="M1.28666 7.50668C1.4615 7.48193 1.63901 7.52756 1.78025 7.63354C1.92148 7.73953 2.0149 7.89722 2.03999 8.07201C2.12355 8.65123 2.33316 9.20507 2.65405 9.69447C2.97493 10.1839 3.39928 10.5969 3.89717 10.9045C4.39506 11.212 4.95435 11.4066 5.53562 11.4745C6.11689 11.5424 6.70597 11.4819 7.26133 11.2973L7.45666 11.226L8.46266 12.232C7.97403 12.4869 7.44859 12.6639 6.90533 12.7567L6.66666 12.792V13.5C6.66647 13.6699 6.60141 13.8334 6.48476 13.9569C6.36812 14.0805 6.20869 14.1548 6.03906 14.1648C5.86944 14.1747 5.70241 14.1196 5.57211 14.0105C5.4418 13.9014 5.35806 13.7467 5.33799 13.578L5.33333 13.5V12.792C4.17464 12.6456 3.09598 12.1231 2.26277 11.3047C1.42957 10.4863 0.887836 9.41722 0.720661 8.26134C0.708217 8.17467 0.71297 8.08639 0.734648 8.00156C0.756326 7.91672 0.794504 7.83698 0.847002 7.7669C0.8995 7.69682 0.96529 7.63777 1.04061 7.59312C1.11594 7.54847 1.19998 7.5191 1.28666 7.50668ZM5.99999 0.833344C6.85897 0.833393 7.68477 1.16504 8.30518 1.75912C8.92559 2.3532 9.29272 3.16384 9.33 4.02201L9.33333 4.16668V7.50001C9.33419 8.0951 9.17508 8.67949 8.87266 9.19201L8.78133 9.33868L9.26066 9.81801C9.62199 9.31134 9.86733 8.71668 9.95933 8.07201C9.98443 7.89697 10.078 7.73907 10.2196 7.63305C10.3611 7.52703 10.539 7.48157 10.714 7.50668C10.889 7.53178 11.0469 7.6254 11.153 7.76693C11.259 7.90845 11.3044 8.0863 11.2793 8.26134C11.1585 9.10636 10.8356 9.90975 10.338 10.6033L10.2133 10.77L11.6567 12.214C11.7762 12.334 11.8456 12.495 11.8508 12.6643C11.856 12.8336 11.7965 12.9985 11.6845 13.1255C11.5725 13.2526 11.4163 13.3322 11.2477 13.3483C11.0791 13.3643 10.9107 13.3156 10.7767 13.212L10.714 13.1567L0.343328 2.78668C0.223763 2.6667 0.154345 2.50572 0.149176 2.33642C0.144006 2.16712 0.203471 2.0022 0.315494 1.87516C0.427516 1.74811 0.583696 1.66847 0.752311 1.65241C0.920926 1.63635 1.08933 1.68507 1.22333 1.78868L1.28599 1.84401L2.77266 3.33068C2.95811 2.61579 3.37564 1.9827 3.95973 1.53072C4.54383 1.07874 5.26145 0.833453 5.99999 0.833344ZM2.66666 6.43601L6.93199 10.7013C6.43519 10.846 5.91152 10.8731 5.40245 10.7803C4.89339 10.6875 4.41291 10.4775 3.99906 10.1669C3.58521 9.85631 3.24936 9.45361 3.0181 8.99072C2.78684 8.52783 2.66651 8.01746 2.66666 7.50001V6.43601Z" fill="#F6F4F4"/>
</svg>
