<svg width="22" height="22" viewBox="0 0 22 22" fill="none" xmlns="http://www.w3.org/2000/svg">
<path d="M10.235 1.374C9.86698 1.526 9.53798 1.856 8.87898 2.514C8.21998 3.174 7.88998 3.503 7.73898 3.87C7.63843 4.11269 7.58668 4.37281 7.58668 4.6355C7.58668 4.89819 7.63843 5.15831 7.73898 5.401C7.88998 5.769 8.21898 6.098 8.87898 6.757C9.53698 7.416 9.86698 7.746 10.235 7.897C10.7248 8.09978 11.2751 8.09978 11.765 7.897C12.133 7.746 12.462 7.417 13.121 6.757C13.781 6.098 14.109 5.769 14.261 5.401C14.4638 4.91116 14.4638 4.36084 14.261 3.871C14.109 3.503 13.781 3.174 13.121 2.515C12.462 1.855 12.133 1.526 11.765 1.374C11.2751 1.17121 10.7248 1.17121 10.235 1.374ZM3.86998 7.738C3.50298 7.89 3.17298 8.219 2.51498 8.878C1.85498 9.538 1.52598 9.867 1.37398 10.234C1.27343 10.4767 1.22168 10.7368 1.22168 10.9995C1.22168 11.2622 1.27343 11.5223 1.37398 11.765C1.52598 12.133 1.85598 12.462 2.51398 13.121C3.17398 13.78 3.50298 14.109 3.86998 14.261C4.11266 14.3615 4.37278 14.4133 4.63548 14.4133C4.89817 14.4133 5.15829 14.3615 5.40098 14.261C5.76898 14.109 6.09798 13.78 6.75698 13.121C7.41698 12.462 7.74498 12.133 7.89698 11.765C8.09976 11.2752 8.09976 10.7248 7.89698 10.235C7.74498 9.867 7.41698 9.537 6.75698 8.878C6.09798 8.219 5.76898 7.89 5.40098 7.738C4.91113 7.53521 4.35982 7.53521 3.86998 7.738ZM15.243 8.878C14.584 9.538 14.255 9.867 14.103 10.234C14.0024 10.4767 13.9507 10.7368 13.9507 10.9995C13.9507 11.2622 14.0024 11.5223 14.103 11.765C14.255 12.133 14.584 12.462 15.243 13.121C15.902 13.78 16.232 14.109 16.599 14.261C17.0888 14.4638 17.6391 14.4638 18.129 14.261C18.497 14.109 18.827 13.78 19.486 13.121C20.145 12.462 20.473 12.133 20.626 11.765C20.8288 11.2752 20.8288 10.7248 20.626 10.235C20.473 9.867 20.145 9.537 19.486 8.878C18.826 8.219 18.497 7.89 18.13 7.738C17.8873 7.63745 17.6272 7.5857 17.3645 7.5857C17.1018 7.5857 16.8417 7.63745 16.599 7.738C16.232 7.89 15.902 8.219 15.243 8.878ZM10.235 14.102C9.86698 14.254 9.53798 14.584 8.87898 15.242C8.21998 15.902 7.88998 16.231 7.73898 16.599C7.53619 17.0888 7.53619 17.6392 7.73898 18.129C7.88998 18.497 8.21898 18.826 8.87898 19.485C9.53698 20.144 9.86698 20.474 10.235 20.625C10.7248 20.8278 11.2751 20.8278 11.765 20.625C12.133 20.474 12.462 20.145 13.121 19.485C13.781 18.826 14.109 18.497 14.261 18.129C14.464 17.639 14.464 17.089 14.261 16.599C14.109 16.231 13.781 15.901 13.121 15.243C12.462 14.583 12.133 14.254 11.765 14.102C11.2751 13.8992 10.7248 13.8992 10.235 14.102Z" stroke="#7446AC" stroke-width="2" stroke-linecap="round" stroke-linejoin="round"/>
</svg>
