<svg width="174" height="68" viewBox="0 0 174 68" fill="none" xmlns="http://www.w3.org/2000/svg">
<g clip-path="url(#clip0_1_1737)">
<path d="M170.163 16.5451C168.226 9.52024 162.077 4.49009 154.828 3.91475C116.835 0.90914 79.2266 1.53876 48.2714 6.19304C30.1789 8.92319 14.368 13.0184 2.06476 18.5696C17.6454 71.1209 96.9668 84.2262 108.062 35.9845C108.131 35.6778 108.215 35.3712 108.315 35.0713C108.59 34.2436 108.973 33.4538 109.51 32.7631C110.506 31.5053 111.777 30.6694 113.163 30.2406H113.171C117.167 28.9909 121.984 31.1308 122.909 36.3672C126.08 56.5353 138.911 66.3812 157.662 65.5453C161.107 65.392 164.2 63.3986 165.754 60.3157C166.26 59.3034 166.742 58.2382 167.193 57.1337C172.01 45.2781 173.434 28.3775 170.164 16.5451H170.163ZM91.0557 17.9943C93.3982 18.3159 95.1595 20.2875 95.2895 22.6486C96.6837 48.1996 69.1507 59.1962 49.1751 46.2673C45.4845 43.8819 42.6976 40.3009 41.1585 36.184C40.6843 34.9193 40.2928 33.6614 39.9866 32.4036C38.8079 27.5335 41.4647 22.5346 46.1727 20.8479C57.1672 16.9223 73.2464 15.541 91.0557 17.9956V17.9943ZM133.228 23.2388C133.488 20.8927 135.241 18.9903 137.545 18.4841C146.472 16.5288 154.925 16.4447 161.334 20.5548C164.488 22.5794 166.287 26.1685 166.287 29.9177C166.264 45.2388 160.606 54.8011 149.435 51.558C146.212 50.6231 143.388 48.6895 141.075 46.2592C134.612 39.4501 132.346 30.9299 133.226 23.2388H133.228Z" fill="#7446AC"/>
<g opacity="0.6">
<path d="M37.0181 36.5042C37.3243 37.7621 37.7145 39.02 38.19 40.2846C39.7291 44.4029 42.516 47.9839 46.2066 50.368C61.3699 60.1813 80.8741 56.2001 88.789 42.5426C79.6547 52.7983 62.6909 55.0155 49.175 46.2673C45.4845 43.8819 42.6976 40.3009 41.1585 36.184C40.6843 34.9193 40.2928 33.6614 39.9866 32.4036C39.5002 30.3939 39.6749 28.3667 40.37 26.5538C37.5031 28.881 36.1036 32.7279 37.0181 36.5042Z" fill="white"/>
<path d="M106.54 36.8652C106.004 37.5558 105.622 38.3456 105.345 39.1733C105.245 39.4718 105.161 39.7785 105.092 40.0852C104.05 44.616 102.405 48.6053 100.269 52.0723C103.87 47.7654 106.578 42.4272 108.06 35.9845C108.114 35.7443 108.185 35.5069 108.258 35.2694C107.628 35.6941 107.047 36.222 106.539 36.8638L106.54 36.8652Z" fill="white"/>
<path d="M170.163 16.5451C168.226 9.52024 162.077 4.49009 154.828 3.91475C116.835 0.90914 79.2266 1.53876 48.2714 6.19304C30.1789 8.92319 14.368 13.0184 2.06476 18.5696C2.31405 19.4123 2.5823 20.2454 2.86411 21.0677C14.5645 16.3253 29.0029 12.7538 45.3029 10.2937C76.2582 5.63941 113.867 5.00979 151.858 8.01676C159.109 8.5921 165.257 13.6222 167.193 20.6471C170.463 32.4795 169.039 49.3801 164.222 61.2357C163.919 61.9779 163.598 62.693 163.268 63.3959C164.284 62.5655 165.139 61.5301 165.75 60.317C166.256 59.3048 166.738 58.2396 167.189 57.135C172.006 45.2795 173.43 28.3789 170.16 16.5464L170.163 16.5451Z" fill="white"/>
<path d="M133.26 23.0719C131.632 23.8956 130.466 25.4696 130.259 27.3408C129.379 35.0319 131.645 43.5521 138.108 50.3612C140.42 52.7915 143.245 54.7251 146.468 55.66C153.033 57.5665 157.691 55.0467 160.423 49.5376C157.701 52.0547 154.038 52.8946 149.437 51.5594C146.214 50.6245 143.389 48.6908 141.076 46.2606C134.614 39.4515 132.347 30.9313 133.228 23.2402C133.234 23.1832 133.252 23.1289 133.26 23.0719Z" fill="white"/>
</g>
<path d="M67.0685 68C41.2792 68 9.58421 51.1971 0.0868256 19.1572C-0.207173 18.1653 0.276502 17.1082 1.21676 16.6835C33.0852 2.30543 90.5694 -3.23764 154.989 1.85357C163.096 2.49405 169.995 8.17553 172.152 15.9915C175.828 29.307 173.869 48.7614 167.593 61.2438C165.711 64.9849 161.942 67.4247 157.753 67.6106C137.543 68.5116 124.1 57.2368 120.87 36.686C120.456 34.3481 118.976 32.6722 116.818 32.1295C114.7 31.5989 112.468 32.3479 111.129 34.0455C110.656 34.6452 110.301 35.4553 110.072 36.4499C105.685 55.5203 90.2876 67.3039 68.8839 67.9701C68.2838 67.9891 67.6754 67.9986 67.0685 67.9986V68ZM4.58623 19.7176C14.3519 49.3856 44.6663 64.5887 68.7552 63.8396C88.4572 63.2263 102.052 52.9055 106.048 35.5232C106.416 33.9288 107.035 32.5705 107.887 31.4863C110.229 28.5119 114.127 27.1902 117.823 28.1197C121.573 29.0628 124.233 32.0101 124.94 36.0035C127.853 54.5406 139.434 64.2806 157.569 63.4787C160.266 63.3593 162.694 61.7893 163.904 59.3835C169.674 47.9052 171.549 29.3288 168.17 17.0933C166.474 10.9477 161.045 6.47936 154.661 5.97594C92.0259 1.02584 36.1755 6.16048 4.58623 19.7176Z" fill="#212020"/>
<path d="M153.531 53.9015C152.076 53.9015 150.545 53.6721 148.956 53.2108C145.657 52.2528 142.501 50.2595 139.83 47.4452C133.535 40.8166 130.506 31.9219 131.516 23.0434C131.866 19.9781 134.141 17.4719 137.177 16.8056C147.959 14.4405 156.166 15.1936 162.266 19.1083C165.866 21.4192 168.012 25.4629 168.006 29.9245C167.994 40.4936 165.446 47.9907 160.636 51.6042C158.605 53.1307 156.198 53.9015 153.531 53.9015ZM137.913 20.1708C136.314 20.5223 135.118 21.8331 134.935 23.4329C134.039 31.295 136.731 39.1815 142.323 45.0692C144.576 47.4411 147.201 49.1115 149.915 49.8999C153.389 50.9094 156.299 50.5539 158.573 48.8469C162.427 45.9498 164.557 39.2276 164.568 29.919C164.572 26.6882 162.978 23.6568 160.411 22.0081C155.119 18.6117 147.761 18.0092 137.914 20.1695L137.913 20.1708Z" fill="#371A45"/>
<path d="M67.3854 53.4197C60.8049 53.4197 54.0945 51.5038 48.2375 47.7138C44.3207 45.1791 41.233 41.2983 39.5449 36.7878C39.0504 35.4662 38.6385 34.1296 38.3174 32.8134C36.9165 27.0532 40.0462 21.2143 45.5969 19.2291C57.4504 14.9914 74.104 13.9181 91.2928 16.2873C94.4292 16.7201 96.8327 19.3553 97.0061 22.5549C97.6361 34.0753 92.6273 43.8059 83.2627 49.2499C78.4652 52.0397 72.9714 53.4211 67.3854 53.4211V53.4197ZM46.754 22.4735C42.8683 23.863 40.6789 27.9569 41.6611 31.9965C41.9484 33.1797 42.3209 34.3847 42.7667 35.5774C44.1974 39.4013 46.8027 42.6837 50.1045 44.8181C59.8579 51.1292 72.1964 51.6992 81.5353 46.2674C89.7415 41.4964 94.1271 32.9219 93.5716 22.7408C93.4863 21.1858 92.3306 19.9062 90.8227 19.6986C74.169 17.4027 58.1048 18.4136 46.754 22.4722V22.4735Z" fill="#371A45"/>
<g opacity="0.3">
<path d="M108.314 35.0727C108.215 35.3712 108.129 35.6778 108.06 35.9859C96.9668 84.2262 17.6454 71.1209 2.06476 18.5696C14.3694 13.0184 30.1789 8.92319 48.2714 6.19304C47.3149 7.03705 46.357 7.87971 45.4005 8.71558L46.5792 8.88384C41.5636 11.5299 36.1741 14.5816 34.0456 19.8424C32.1692 24.4669 33.295 29.7426 34.9114 34.4742C37.0249 40.6849 40.118 46.8427 45.3016 50.8538C52.8656 56.7049 63.264 56.8813 72.7966 56.1988C77.483 55.8541 82.2222 55.3547 86.6159 53.6762C96.3544 49.965 103.115 41.0079 107.946 31.7604C108.085 32.8568 108.215 33.9613 108.314 35.0727Z" fill="#371A45"/>
</g>
<g opacity="0.3">
<path d="M167.192 57.1337C166.741 58.2382 166.258 59.3034 165.753 60.3157C164.199 63.3986 161.106 65.392 157.661 65.5453C138.91 66.3812 126.078 56.5353 122.908 36.3672C121.981 31.1294 117.166 28.9909 113.169 30.2406H113.161C112.449 30.2555 111.745 30.4021 111.056 30.7237C111.324 30.0031 111.592 29.2826 111.859 28.5539L109.907 30.8852C111.385 26.7831 116.951 25.3719 120.933 27.1427C124.914 28.9217 127.456 32.9016 129.109 36.9425C130.763 40.9767 131.766 45.2931 133.886 49.1047C138.243 56.9654 147.445 61.8422 156.38 61.0444C160.247 60.6997 163.967 59.2966 167.191 57.1337H167.192Z" fill="#371A45"/>
</g>
</g>
<defs>
<clipPath id="clip0_1_1737">
<rect width="174" height="68" fill="white"/>
</clipPath>
</defs>
</svg>
