<svg width="31" height="12" viewBox="0 0 31 12" fill="none" xmlns="http://www.w3.org/2000/svg">
<g clip-path="url(#clip0_6653_130)">
<path d="M30.005 2.91972C29.6709 1.68004 28.6109 0.79237 27.3609 0.690839C20.8105 0.160438 14.3263 0.271547 8.98915 1.09289C5.86976 1.57468 3.14374 2.29737 1.02249 3.27699C3.7088 12.5508 17.3849 14.8634 19.2978 6.35021C19.3097 6.29609 19.3242 6.24197 19.3415 6.18905C19.3889 6.04298 19.455 5.90362 19.5475 5.78173C19.7192 5.55976 19.9383 5.41225 20.1773 5.33658H20.1787C20.8678 5.11604 21.6982 5.49367 21.8577 6.41774C22.4043 9.97681 24.6167 11.7143 27.8496 11.5668C28.4436 11.5398 28.9769 11.188 29.2449 10.6439C29.332 10.4653 29.4151 10.2773 29.4929 10.0824C30.3234 7.99026 30.5689 5.0078 30.0052 2.91972H30.005ZM16.3658 3.17546C16.7696 3.23222 17.0733 3.58015 17.0957 3.99681C17.3361 8.50582 12.589 10.4464 9.14496 8.16483C8.50865 7.74386 8.02815 7.11193 7.76279 6.38541C7.68103 6.16223 7.61353 5.94026 7.56073 5.71828C7.35751 4.85886 7.81558 3.97669 8.62732 3.67905C10.5229 2.98629 13.2952 2.74252 16.3658 3.1757V3.17546ZM23.6368 4.10097C23.6816 3.68695 23.9839 3.35123 24.3812 3.26191C25.9204 2.91685 27.3778 2.902 28.4826 3.62732C29.0264 3.9846 29.3367 4.61796 29.3367 5.27959C29.3327 7.98332 28.3572 9.67078 26.4312 9.09848C25.8755 8.93349 25.3885 8.59226 24.9897 8.16339C23.8755 6.96179 23.4847 5.45822 23.6365 4.10097H23.6368Z" fill="#F2C94C"/>
<g opacity="0.6">
<path d="M7.04893 6.44192C7.10173 6.6639 7.169 6.88588 7.25099 7.10905C7.51635 7.83581 7.99685 8.46774 8.63316 8.88847C11.2475 10.6202 14.6103 9.91767 15.975 7.50751C14.4001 9.31734 11.4753 9.70862 9.14496 8.16483C8.50865 7.74386 8.02815 7.11193 7.76279 6.38541C7.68103 6.16223 7.61353 5.94026 7.56073 5.71828C7.47687 5.36364 7.50701 5.00589 7.62684 4.68597C7.13256 5.09664 6.89126 5.77551 7.04893 6.44192Z" fill="white"/>
<path d="M19.0355 6.50562C18.943 6.6275 18.8771 6.76687 18.8295 6.91294C18.8122 6.96562 18.7977 7.01974 18.7858 7.07385C18.6061 7.87341 18.3226 8.57742 17.9542 9.18923C18.5751 8.42919 19.042 7.48716 19.2976 6.35021C19.3069 6.30782 19.3191 6.26592 19.3317 6.22401C19.2231 6.29896 19.1229 6.39211 19.0353 6.50538L19.0355 6.50562Z" fill="white"/>
<path d="M30.005 2.91972C29.6709 1.68004 28.6109 0.79237 27.3609 0.690839C20.8105 0.160438 14.3263 0.271547 8.98915 1.09289C5.86976 1.57468 3.14374 2.29737 1.02249 3.27699C1.06547 3.4257 1.11172 3.57273 1.16031 3.71784C3.17761 2.88093 5.667 2.25067 8.47735 1.81654C13.8145 0.995192 20.2987 0.884083 26.8489 1.41472C28.0991 1.51625 29.1591 2.40393 29.4929 3.64361C30.0566 5.73169 29.8111 8.71415 28.9807 10.8063C28.9283 10.9373 28.873 11.0635 28.8162 11.1875C28.9914 11.041 29.1388 10.8583 29.2442 10.6442C29.3313 10.4655 29.4144 10.2776 29.4922 10.0827C30.3227 7.9905 30.5682 5.00804 30.0045 2.91996L30.005 2.91972Z" fill="white"/>
<path d="M23.6424 4.07152C23.3616 4.21687 23.1607 4.49464 23.125 4.82486C22.9731 6.18211 23.3639 7.68567 24.4782 8.88727C24.8769 9.31615 25.364 9.65737 25.9197 9.82236C27.0514 10.1588 27.8545 9.71413 28.3257 8.74192C27.8564 9.18612 27.2248 9.33434 26.4315 9.09872C25.8758 8.93373 25.3887 8.5925 24.99 8.16363C23.8757 6.96203 23.4849 5.45846 23.6368 4.10121C23.638 4.09115 23.641 4.08158 23.6424 4.07152Z" fill="white"/>
</g>
<path d="M12.2304 12C7.78399 12 2.31933 9.03479 0.681854 3.38069C0.631164 3.20565 0.714557 3.01911 0.87667 2.94416C6.37122 0.406851 16.2823 -0.571338 27.3891 0.327111C28.787 0.440136 29.9764 1.44275 30.3483 2.82203C30.982 5.17184 30.6442 8.60496 29.5622 10.8077C29.2378 11.4679 28.5879 11.8985 27.8657 11.9313C24.3812 12.0903 22.0635 10.1006 21.5066 6.47402C21.4351 6.06143 21.18 5.7657 20.8079 5.66992C20.4428 5.57629 20.0578 5.70847 19.8271 6.00803C19.7455 6.11387 19.6843 6.25683 19.6449 6.43235C18.8885 9.79771 16.2337 11.8772 12.5434 11.9947C12.4399 11.9981 12.3351 11.9998 12.2304 11.9998V12ZM1.45761 3.47959C3.14134 8.71511 8.36797 11.398 12.5212 11.2658C15.9181 11.1576 18.262 9.33627 18.9511 6.2688C19.0144 5.98744 19.1211 5.74774 19.2681 5.55641C19.672 5.03152 20.344 4.79829 20.9812 4.96232C21.6278 5.12874 22.0864 5.64884 22.2083 6.35357C22.7105 9.62482 24.7073 11.3437 27.8339 11.2021C28.299 11.1811 28.7176 10.904 28.9262 10.4794C29.921 8.45386 30.2443 5.17567 29.6618 3.01647C29.3693 1.93196 28.4333 1.14343 27.3326 1.05459C16.5334 0.181041 6.90405 1.08715 1.45761 3.47959Z" fill="#212020"/>
<path d="M27.1374 9.51202C26.8865 9.51202 26.6226 9.47155 26.3486 9.39014C25.7798 9.22108 25.2357 8.86932 24.7751 8.37268C23.6898 7.20292 23.1675 5.63327 23.3418 4.06649C23.402 3.52555 23.7942 3.08327 24.3177 2.9657C26.1766 2.54832 27.5917 2.68122 28.6434 3.37206C29.264 3.77986 29.634 4.49345 29.6331 5.28079C29.631 7.14593 29.1916 8.46894 28.3624 9.10662C28.0122 9.37601 27.5971 9.51202 27.1374 9.51202ZM24.4446 3.55956C24.1689 3.62158 23.9627 3.85289 23.9311 4.13521C23.7767 5.52264 24.2409 6.91437 25.2049 7.95339C25.5934 8.37196 26.0461 8.66673 26.514 8.80586C27.1129 8.98402 27.6146 8.92128 28.0066 8.62004C28.6712 8.10879 29.0384 6.92252 29.0403 5.27983C29.041 4.70968 28.7662 4.17473 28.3236 3.88378C27.4112 3.28442 26.1425 3.1781 24.4448 3.55932L24.4446 3.55956Z" fill="#212020"/>
<path d="M12.2847 9.42701C11.1501 9.42701 9.99313 9.0889 8.98331 8.42009C8.308 7.97278 7.77564 7.28793 7.48459 6.49197C7.39932 6.25873 7.32831 6.02287 7.27295 5.79059C7.03142 4.77409 7.57101 3.7437 8.52804 3.39337C10.5717 2.64554 13.4431 2.45613 16.4066 2.87422C16.9474 2.95061 17.3618 3.41564 17.3917 3.98028C17.5003 6.01329 16.6367 7.73045 15.0221 8.69116C14.195 9.18348 13.2478 9.42725 12.2847 9.42725V9.42701ZM8.72753 3.96592C8.05759 4.21112 7.6801 4.93357 7.84946 5.64644C7.89898 5.85525 7.96322 6.06789 8.04007 6.27837C8.28674 6.95316 8.73594 7.53242 9.3052 7.90908C10.9868 9.02281 13.1142 9.12338 14.7243 8.16483C16.1392 7.32289 16.8953 5.80975 16.7995 4.01309C16.7848 3.73867 16.5856 3.51286 16.3256 3.47622C13.4543 3.07106 10.6846 3.24946 8.72753 3.96568V3.96592Z" fill="#212020"/>
<g opacity="0.3">
<path d="M19.3413 6.18929C19.3242 6.24198 19.3095 6.29609 19.2976 6.35045C17.3849 14.8635 3.7088 12.5508 1.02249 3.277C3.14397 2.29737 5.86976 1.57468 8.98915 1.09289C8.82423 1.24184 8.65908 1.39054 8.49417 1.53805L8.69739 1.56774C7.83264 2.03468 6.90341 2.57323 6.53643 3.50161C6.21291 4.31768 6.40702 5.2487 6.6857 6.08369C7.0501 7.1797 7.58339 8.26636 8.47712 8.9742C9.78126 10.0067 11.5741 10.0379 13.2176 9.91743C14.0256 9.85661 14.8427 9.76849 15.6003 9.47227C17.2793 8.81736 18.445 7.23669 19.2779 5.60478C19.3018 5.79826 19.3242 5.99318 19.3413 6.18929Z" fill="#212020"/>
</g>
<g opacity="0.3">
<path d="M29.4927 10.0824C29.4149 10.2773 29.3318 10.4653 29.2446 10.6439C28.9767 11.188 28.4434 11.5398 27.8494 11.5668C24.6165 11.7143 22.4041 9.97681 21.8575 6.41774C21.6977 5.49342 20.8676 5.11604 20.1785 5.33658H20.1771C20.0542 5.33921 19.933 5.36507 19.8141 5.42183C19.8603 5.29467 19.9066 5.16752 19.9526 5.03893L19.616 5.45032C19.8708 4.72644 20.8304 4.4774 21.5169 4.78989C22.2035 5.10382 22.6417 5.80616 22.9267 6.51927C23.2119 7.23118 23.3847 7.9929 23.7503 8.66553C24.5015 10.0527 26.0881 10.9133 27.6286 10.7725C28.2953 10.7117 28.9368 10.4641 29.4925 10.0824H29.4927Z" fill="#212020"/>
</g>
</g>
<defs>
<clipPath id="clip0_6653_130">
<rect width="30" height="12" fill="white" transform="translate(0.666504)"/>
</clipPath>
</defs>
</svg>
